HIERARCHY
ROOT Hips
{
	OFFSET -14.64140 90.27770 -84.91600
	CHANNELS 6 Xposition Yposition Zposition Zrotation Xrotation Yrotation
	JOINT Spine
	{
		OFFSET 0.00000 13.20850 -1.60436
		CHANNELS 3 Zrotation Xrotation Yrotation
		JOINT Spine1
		{
			OFFSET 0.00000 8.61716 0.00000
			CHANNELS 3 Zrotation Xrotation Yrotation
			JOINT Spine2
			{
				OFFSET 0.00000 8.61717 0.00000
				CHANNELS 3 Zrotation Xrotation Yrotation
				JOINT Spine3
				{
					OFFSET 0.00000 8.61717 0.00000
					CHANNELS 3 Zrotation Xrotation Yrotation
					JOINT Neck
					{
						OFFSET 0.00000 11.07920 1.10792
						CHANNELS 3 Zrotation Xrotation Yrotation
						JOINT Neck1
						{
							OFFSET 0.00000 7.08032 0.00000
							CHANNELS 3 Zrotation Xrotation Yrotation
							JOINT Head
							{
								OFFSET 0.00000 7.08031 0.00000
								CHANNELS 3 Zrotation Xrotation Yrotation
								End site
								{
									OFFSET 0.00000 0.00000 0.00000
								}
							}
						}
					}
					JOINT RightShoulder
					{
						OFFSET -0.01000 7.91373 5.19711
						CHANNELS 3 Zrotation Xrotation Yrotation
						JOINT RightArm
						{
							OFFSET -18.41580 0.00000 0.00000
							CHANNELS 3 Zrotation Xrotation Yrotation
							JOINT RightForeArm
							{
								OFFSET -29.11090 0.00000 0.00000
								CHANNELS 3 Zrotation Xrotation Yrotation
								JOINT RightHand
								{
									OFFSET -24.65040 0.00000 0.00000
									CHANNELS 3 Zrotation Xrotation Yrotation
									JOINT RightHandThumb1
									{
										OFFSET -5.35114 -0.85590 3.97906
										CHANNELS 3 Zrotation Xrotation Yrotation
										JOINT RightHandThumb2
										{
											OFFSET -4.52789 0.00000 0.00000
											CHANNELS 3 Zrotation Xrotation Yrotation
											JOINT RightHandThumb3
											{
												OFFSET -2.46976 0.00000 0.00000
												CHANNELS 3 Zrotation Xrotation Yrotation
												End site
												{
													OFFSET 0.00000 0.00000 0.00000
												}
											}
										}
									}
									JOINT RightHandIndex1
									{
										OFFSET -14.26970 0.00000 2.88139
										CHANNELS 3 Zrotation Xrotation Yrotation
										JOINT RightHandIndex2
										{
											OFFSET -5.48836 0.00000 0.00000
											CHANNELS 3 Zrotation Xrotation Yrotation
											JOINT RightHandIndex3
											{
												OFFSET -3.01859 0.00000 0.00000
												CHANNELS 3 Zrotation Xrotation Yrotation
												End site
												{
													OFFSET 0.00000 0.00000 0.00000
												}
											}
										}
									}
									JOINT RightHandMiddle1
									{
										OFFSET -14.26970 0.00000 -0.09147
										CHANNELS 3 Zrotation Xrotation Yrotation
										JOINT RightHandMiddle2
										{
											OFFSET -6.17441 0.00000 0.00000
											CHANNELS 3 Zrotation Xrotation Yrotation
											JOINT RightHandMiddle3
											{
												OFFSET -3.56743 0.00000 0.00000
												CHANNELS 3 Zrotation Xrotation Yrotation
												End site
												{
													OFFSET 0.00000 0.00000 0.00000
												}
											}
										}
									}
									JOINT RightHandRing1
									{
										OFFSET -12.69180 0.00000 -3.06433
										CHANNELS 3 Zrotation Xrotation Yrotation
										JOINT RightHandRing2
										{
											OFFSET -5.62556 0.00000 0.00000
											CHANNELS 3 Zrotation Xrotation Yrotation
											JOINT RightHandRing3
											{
												OFFSET -3.56744 0.00000 0.00000
												CHANNELS 3 Zrotation Xrotation Yrotation
												End site
												{
													OFFSET 0.00000 0.00000 0.00000
												}
											}
										}
									}
									JOINT RightHandPinky1
									{
										OFFSET -11.11390 0.00000 -6.03719
										CHANNELS 3 Zrotation Xrotation Yrotation
										JOINT RightHandPinky2
										{
											OFFSET -4.52789 0.00000 0.00000
											CHANNELS 3 Zrotation Xrotation Yrotation
											JOINT RightHandPinky3
											{
												OFFSET -2.46976 0.00000 0.00000
												CHANNELS 3 Zrotation Xrotation Yrotation
												End site
												{
													OFFSET 0.00000 0.00000 0.00000
												}
											}
										}
									}
								}
							}
						}
					}
					JOINT LeftShoulder
					{
						OFFSET 0.01000 7.91373 5.19711
						CHANNELS 3 Zrotation Xrotation Yrotation
						JOINT LeftArm
						{
							OFFSET 18.41580 0.00000 0.00000
							CHANNELS 3 Zrotation Xrotation Yrotation
							JOINT LeftForeArm
							{
								OFFSET 29.11090 0.00000 0.00000
								CHANNELS 3 Zrotation Xrotation Yrotation
								JOINT LeftHand
								{
									OFFSET 24.65040 0.00000 0.00000
									CHANNELS 3 Zrotation Xrotation Yrotation
									JOINT LeftHandThumb1
									{
										OFFSET 5.35114 -0.85590 3.97906
										CHANNELS 3 Zrotation Xrotation Yrotation
										JOINT LeftHandThumb2
										{
											OFFSET 4.52789 0.00000 0.00000
											CHANNELS 3 Zrotation Xrotation Yrotation
											JOINT LeftHandThumb3
											{
												OFFSET 2.46977 0.00000 0.00000
												CHANNELS 3 Zrotation Xrotation Yrotation
												End site
												{
													OFFSET 0.00000 0.00000 0.00000
												}
											}
										}
									}
									JOINT LeftHandIndex1
									{
										OFFSET 14.26970 0.00000 2.88139
										CHANNELS 3 Zrotation Xrotation Yrotation
										JOINT LeftHandIndex2
										{
											OFFSET 5.48836 0.00000 0.00000
											CHANNELS 3 Zrotation Xrotation Yrotation
											JOINT LeftHandIndex3
											{
												OFFSET 3.01859 0.00000 0.00000
												CHANNELS 3 Zrotation Xrotation Yrotation
												End site
												{
													OFFSET 0.00000 0.00000 0.00000
												}
											}
										}
									}
									JOINT LeftHandMiddle1
									{
										OFFSET 14.26970 0.00000 -0.09147
										CHANNELS 3 Zrotation Xrotation Yrotation
										JOINT LeftHandMiddle2
										{
											OFFSET 6.17440 0.00000 0.00000
											CHANNELS 3 Zrotation Xrotation Yrotation
											JOINT LeftHandMiddle3
											{
												OFFSET 3.56744 0.00000 0.00000
												CHANNELS 3 Zrotation Xrotation Yrotation
												End site
												{
													OFFSET 0.00000 0.00000 0.00000
												}
											}
										}
									}
									JOINT LeftHandRing1
									{
										OFFSET 12.69180 0.00000 -3.06433
										CHANNELS 3 Zrotation Xrotation Yrotation
										JOINT LeftHandRing2
										{
											OFFSET 5.62556 0.00000 0.00000
											CHANNELS 3 Zrotation Xrotation Yrotation
											JOINT LeftHandRing3
											{
												OFFSET 3.56744 0.00000 0.00000
												CHANNELS 3 Zrotation Xrotation Yrotation
												End site
												{
													OFFSET 0.00000 0.00000 0.00000
												}
											}
										}
									}
									JOINT LeftHandPinky1
									{
										OFFSET 11.11390 0.00000 -6.03719
										CHANNELS 3 Zrotation Xrotation Yrotation
										JOINT LeftHandPinky2
										{
											OFFSET 4.52789 0.00000 0.00000
											CHANNELS 3 Zrotation Xrotation Yrotation
											JOINT LeftHandPinky3
											{
												OFFSET 2.46976 0.00000 0.00000
												CHANNELS 3 Zrotation Xrotation Yrotation
												End site
												{
													OFFSET 0.00000 0.00000 0.00000
												}
											}
										}
									}
								}
							}
						}
					}
					JOINT pCube4
					{
						OFFSET 0.00000 10.91090 1.10792
						CHANNELS 3 Zrotation Xrotation Yrotation
						End site
						{
							OFFSET 0.00000 0.00000 0.00000
						}
					}
				}
			}
		}
	}
	JOINT RightUpLeg
	{
		OFFSET -9.98441 0.00000 0.00000
		CHANNELS 3 Zrotation Xrotation Yrotation
		JOINT RightLeg
		{
			OFFSET 0.00000 -42.11790 0.00000
			CHANNELS 3 Zrotation Xrotation Yrotation
			JOINT RightFoot
			{
				OFFSET 0.00000 -45.00020 -0.00001
				CHANNELS 3 Zrotation Xrotation Yrotation
				JOINT RightForeFoot
				{
					OFFSET 0.00000 -3.74820 0.00000
					CHANNELS 3 Zrotation Xrotation Yrotation
					JOINT RightToeBase
					{
						OFFSET 0.00000 0.06325 14.43120
						CHANNELS 3 Zrotation Xrotation Yrotation
						End site
						{
							OFFSET 0.00000 0.00000 0.00000
						}
					}
				}
			}
		}
	}
	JOINT LeftUpLeg
	{
		OFFSET 9.98441 0.00000 0.00000
		CHANNELS 3 Zrotation Xrotation Yrotation
		JOINT LeftLeg
		{
			OFFSET 0.00000 -42.11800 0.00000
			CHANNELS 3 Zrotation Xrotation Yrotation
			JOINT LeftFoot
			{
				OFFSET 0.00000 -45.00070 0.00000
				CHANNELS 3 Zrotation Xrotation Yrotation
				JOINT LeftForeFoot
				{
					OFFSET 0.00000 -3.74824 0.00000
					CHANNELS 3 Zrotation Xrotation Yrotation
					JOINT LeftToeBase
					{
						OFFSET 0.00000 0.06325 14.43110
						CHANNELS 3 Zrotation Xrotation Yrotation
						End site
						{
							OFFSET 0.00000 0.00000 0.00000
						}
					}
				}
			}
		}
	}
}
MOTION
Frames: 4
Frame Time: 0.050000
-0.0387180323023427 0.044902160514052505 -0.04102403968447068 -0.03537321298485981 0.00395196976760095 -0.047704967431580377 -2.6238350035405924 0.12796215834022287 -0.8843444062378367 -0.8803514096924729 3.5082596794241794 0.3598877948421259 -1.3878753474589731 -2.4158118303829843 -1.047258094895095 0.16259015144594868 -0.12116784092181271 -0.8472185885004002 1.1597777972549825 14.870836727839377 -3.006346543009314 0.4113683999776354 0.6576775961633496 -8.238057682576434 1.3658384933849992 -14.22728815935946 -0.6879386835457915 -8.713934560944125 2.8223378307162625 -15.391144077770724 72.54834345639546 -17.70249622415634 21.58633542339054 38.48594776356877 9.129854347789612 97.53662257565203 16.94507952406437 -0.5430473336810181 -2.535013777423899 4.533364335739373 -0.12114097516310021 -1.561725513786566 0.008094941597764742 -0.008998630033006503 -56.25050230605375 -0.04959594391171526 0.0085832405681795 -56.22837169317502 -38.719994808992155 0.002372208485995085 -0.01844159357065756 0.0399912420925185 0.02082069034564649 -0.004585879068581596 0.024740788732090388 0.0038645906239951613 -0.03280635782277186 -36.707964027198756 -0.003905163083649914 0.02442124122081254 0.006172675007187892 -0.022501365540543543 0.010688273166632012 0.031142401804362507 -0.04066867418961492 0.02336878597039918 -19.779238799847413 0.042129457437637914 -0.037324408405118845 0.03580358914936971 0.015266213876396267 -0.04036643758757523 -0.026280741579733966 -0.026068653034402183 0.03335146734048334 24.042755787937004 -0.029231630812202525 -0.004962001389929109 28.887327268726576 0.01310455344866633 0.034386852113218284 28.88600753129011 -0.025791245725239643 0.0323789790673829 7.39457500764029 1.864338074023205 12.733808966966034 -71.92463885473671 9.17501165138709 -13.425062657005105 -50.61634942190532 13.264062663017517 -105.14835950320148 -5.915460980710716 0.9714353611354068 -3.919215438386779 -0.48942366723964514 0.08975663969407827 -8.112175079699654 -0.005402837325989627 -0.01759956650419354 44.56185261868209 -0.027267145195028163 0.04696165236541391 44.54612929134497 12.42681271160627 -0.028807399843421327 -0.0012905688902263958 0.011275437448744957 -0.0025221397176470785 -0.004779951643554299 0.004080207953704008 0.03661648739185538 -0.02719581441505544 11.090965785282373 -0.011469327670269423 -0.015887795905368752 -0.013980867245769175 -0.014072438681741028 -0.022582255646338957 -0.009793270183898833 0.0056116298232459574 -0.02556892862302831 4.750529333246392 0.03589531124260227 -0.04320373687619221 -0.02481214685623481 -0.03000250559268926 -0.030478431399423404 0.03548116091500812 0.04016374404161568 0.013206586315455134 -5.559993677132367 0.03342016200821917 -0.020577221259905295 -6.7406239867593944 -0.03157301441351705 0.02623348785536467 -6.724007058539129 0.006177218695832874 -0.020138177384699335 0.004553993858952027 -0.027586767956280397 -0.01826920826762471 8.03246938775955 3.4987320476589723 -19.204143310328906 0.011848928866021747 10.392522067828194 0.01961020165145391 -5.5936390306557415 -15.695336653984628 3.1789730703936314 -0.015944169183676606 0.046780555714795245 -0.013397513024128243 -0.04501849539283239 4.730027684470491 0.01935480994177324 12.476624180518167 -8.218945425559864 6.855898253409867 0.035584424315464415 46.41079118867865 0.04220949811483056 -4.331852840441682 -14.76047101343218 -3.8712122827245734 0.033828740996841924 0.02116781864200942 -0.022436850323895956 -0.028765654126203882 -10.72796240421581 0.043328273307814774 
-0.019053193453052272 0.03111712502552247 -0.04718126837046419 -0.0036521524552749077 -0.03320449162287986 -0.026703312247775585 -2.7464928339032175 0.02270595118118364 -0.8175393872523906 -0.9237542184307349 3.5606465620242616 0.36308486495506476 -1.4149696277354973 -2.5353150488190472 -0.8652182433235405 0.05483033478517533 -0.13527600478453367 -0.8249168845884034 1.2329087038560516 15.138892143080069 -2.9911060926409263 0.3733309596251522 0.7713066183268255 -8.256398193955944 1.4375968213682373 -14.16477463864066 -0.6651799712455831 -9.358089530835505 2.9671333285383756 -15.34160714829216 71.31540058417805 -21.087436027350748 25.75333688553557 36.799925067228806 7.816324574418092 98.50481167654446 16.16114175184405 -0.575965297458092 -1.6182312792980114 4.556070054373561 -0.12828063659588423 -1.5802953585370405 -0.018744011333955136 -0.042574741635945795 -56.231147863507054 -0.027026032470067712 0.007371059678913401 -56.273010677022214 -38.7211428862826 -0.01785975971181054 0.018549028033802272 -0.02508404100734161 0.00924254575797756 0.01655257997646082 0.048220630497185855 -0.014865278331086092 0.03774270822809106 -36.670401550891874 0.014757686749570701 0.0030082006030899286 0.030393020627320855 0.02717773377667543 -0.029965823178041293 0.034222907384312835 -0.021972769479001866 -0.03430201283432528 -19.76687289554315 0.04468259736779495 0.02167839343060838 -0.006414734628759444 0.010642151020027947 0.0082547540925312 -0.04242106017392476 0.0007030020020407787 -0.035827308054492774 24.09561358286708 -0.01736964158542269 0.037434875377535363 28.901059664836637 0.007576543910543206 -0.026790975133700195 28.868397512289253 0.023603410149507814 0.011873940652172808 7.543512042069244 1.8767888460577344 12.792088708953235 -70.91110715369913 8.893795794068481 -14.463091659423887 -44.70247270949893 11.261889896595218 -103.7990763931578 -3.618786750561956 1.763775626302388 -4.839281573889232 -0.4377281043389435 0.06120054311095177 -8.097635404156739 0.004382352078070037 -0.0014911862966242749 44.56190182833454 -0.04845350951058869 0.020680247015028137 44.573528366322165 12.449187798717722 -0.01895438849997418 0.03022370213924595 -0.006432972440811734 0.0011015848391529388 0.0036990641917103726 0.01278984634589892 -0.0042158421460168636 0.04800606656787427 11.066721994122208 0.023648100013606656 -0.04363189058974684 0.03166413633935264 -0.010803605879812907 0.006982905156286887 0.033880061223928185 -0.0034089289581832596 0.04863246693622458 4.747791857421955 -0.03151576686792346 -0.03784258580976257 -0.012125681810966753 -0.021373890234397584 0.03159183856701157 -0.03262103344583468 0.03891910821084957 -0.03772493456321061 -5.586792932368196 0.025796966258628484 -0.030713249803437426 -6.733966548319155 0.0013610848132950262 0.03443079088080228 -6.7706981750048305 -0.024692188853780685 -0.036191472069089625 0.03865014107018802 0.010644608821424786 0.035280091884647126 8.078573499562799 3.5112950202127604 -19.196056122586047 -0.0083821859181909 10.35049411861379 -0.013011805170905024 -5.608851782082339 -15.687005804248395 3.189645770748138 0.01703168862971594 0.017461733752075194 0.030342883651518472 -0.006766965266891271 4.659847651257388 0.03635958622829496 12.447285011087809 -8.218367220391187 6.917953060660168 0.005705281414676617 46.374307887000136 -0.03632912253529724 -4.3057068145261725 -14.735724596838782 -3.857119612626383 -0.046565691396268434 -0.019144377067585584 -0.00752770559708127 0.010985878620529558 -10.735565637376656 -0.001208441698974966 
0.004335451441577725 -0.006522306188602365 0.037999816906329954 0.02374175961982739 -0.020657733412843465 0.047399653709780665 -2.851690746583748 -0.05967555021139189 -0.7758472104241846 -0.8842945737096014 3.614646278569768 0.34177386291953166 -1.4710977472642701 -2.579454173063765 -0.7738703973145559 0.03135385902164058 -0.20188884244509156 -0.8047165675599262 1.3101958947007901 15.3483650599498 -2.9847704847970524 0.4293794356372817 0.8194239936942616 -8.319359909512063 1.4802672448463206 -14.055967726603756 -0.6323196839037413 -9.968841342497878 3.2104637336398647 -15.297652459300558 69.60308322391029 -23.90207633079498 29.863926536170496 35.32008917362972 6.590204349520825 99.11185209293234 15.634317013394595 -0.558800052315512 -0.9395349264102428 4.5195590222949855 -0.1299977433980901 -1.5826613703756334 0.004583419146670034 0.012499072568505458 -56.24246804791281 0.03847588563848604 0.029858223974615312 -56.23088465178 -38.77028707533147 -0.04671168822638377 0.0028577654449738403 -0.013421680973114991 -0.03039801985263821 -0.037110397090983814 0.009316910649684419 0.034670783461172604 -0.04358462891190743 -36.645042720726096 0.007360050399450408 -0.0153139272922737 -0.0432351286189906 -0.03725500852641731 0.042563704992918255 -0.007016401130265769 -0.019446289306159027 -0.012722210062164365 -19.761364560912305 0.000913933181655526 0.04865973658992707 -0.026445887244862746 -0.04963643760660395 -0.0033208113327302304 -0.023831478367311875 -0.007550006757386814 -0.004571693814516355 24.072518533088935 -0.018022067742853694 0.02572822732685626 28.87711184159951 -0.033183605796265045 -0.001606817627478508 28.86240261862392 0.00358786484893814 -0.005271811335591539 7.709413394905166 1.9433405318449601 12.732375414862013 -69.65471192307892 8.962200896035187 -15.478504436127224 -39.21811300225696 8.793638627029939 -102.54243494929017 -1.4746234818468835 2.4785940510449618 -5.750266347208279 -0.4349546724189618 0.07896861326142618 -8.141593450679249 -0.00012609768718279795 -0.008505209571836252 44.5247568304287 -0.03837917906155395 0.028056300249280786 44.61364877789896 12.488513326355111 -0.0292107764355432 0.03709705417402626 -0.02387172248445631 0.013993895810255142 0.020038176649590313 -0.03273212291241129 -0.009035559370078845 0.007777483610936871 11.114585741150432 0.026433991004503863 -0.02755252773011031 0.04655651302650447 0.005953377104171479 -0.03893406806876961 0.03573294677855111 -0.010202213827374096 0.021944892720924404 4.756443829506397 0.013837432288724878 0.012819925759130666 -0.046355481174610656 -0.03009968611897624 0.02647429051389688 -0.032270105772416756 0.04528524355502075 -0.03144738768865472 -5.604532063049271 -0.011448445013932789 -0.04695343651987096 -6.75275084450522 -0.002320210792413053 -0.02437466052710609 -6.743071821056862 0.015678760881100297 0.03205861869676955 0.028201107566888758 -0.002308282209691485 0.00343925334592244 7.9970255181824035 3.4652412262915635 -19.214567959462876 -0.044211298463012264 10.364860336755333 0.04367587390433551 -5.626932072863456 -15.643186173144564 3.1802307850818727 -0.02713673460451764 0.01725772421445897 0.025973178296198253 0.003063191991650795 4.721995582854151 0.0492324419494754 12.425319737696412 -8.275971521704184 6.834097986181117 0.003644627389606804 46.417323973819556 -0.04533693943128447 -4.290070987630539 -14.72768518273484 -3.8536989718024666 -0.02998308341832421 -0.04340683348473017 0.005875838800830914 0.03192886989538329 -10.77544672437416 -0.024857831207153295 
-0.04938459950881831 -0.0041549337381211904 -0.027199749508102555 0.03828722890828639 0.010782915160925248 0.0029733284896285767 -3.0078775412370464 -0.15607484209201117 -0.8038765754239888 -0.9387572273395057 3.5610099425531034 0.35249084366997124 -1.5682495739483016 -2.5805402316127277 -0.5496812005153302 0.008072187989220068 -0.18121814961885283 -0.7749844102175275 1.3676466849733306 15.591920009493679 -2.905621928420707 0.41879762327346814 0.8951801825573463 -8.3602882486581 1.4947052982994768 -13.962089821826217 -0.7221345259213457 -10.464766752885506 3.2976068002028436 -15.096458397936386 67.41959997475067 -25.042369241820477 34.07771819854168 32.03399753211874 5.072233911709698 99.92049952280273 14.937194101319816 -0.5408330235814722 -0.4575232652949407 4.481009919102806 -0.16959143624526146 -1.6254222203740485 -0.025136182571435454 0.027635643467827493 -56.27193606905955 0.04332641254997386 -0.019435520543723155 -56.253356273848865 -38.78304431713232 0.04162064053233444 0.0013546746232605351 0.026919959531996666 0.010575645258595489 0.034957440508302184 0.01784010560476241 0.03586794608449394 -0.014481307281435665 -36.68334666761802 0.03273530829342651 -0.04081893303228936 -0.03658574088646168 0.019900926015287316 0.04185322861938112 0.029357015168563483 0.04660478612793646 0.016756678599958937 -19.77945248800991 -0.046902603820039565 0.02748066707034465 0.018776473526326495 0.016490769401177493 0.026849725704042173 -0.020394625785330495 -0.028285887366165635 -0.006716565433647683 24.09196488841067 0.026327347514949438 -0.045746118145427686 28.82833673361728 -0.04157433316825083 0.021338688747422445 28.85828375625824 0.012199029654926342 0.034982955339663994 7.8216447023377 1.908639603420652 12.69949176137908 -68.34965993714141 9.223393747621605 -16.939222400167246 -32.630696068303585 5.760292638664733 -101.42614608221518 0.6689971474838387 2.8312260172936865 -6.311200720684312 -0.459330565006168 0.0869789623393562 -8.077545320252156 0.021799237983833014 0.013574856540013792 44.576213113631376 0.007696237639963073 0.0007762646624348429 44.6058335161954 12.477644061640374 0.021105493925604974 0.027444139832082295 0.001388235743688006 -0.046471630293181763 -0.025746646469513777 -0.006198440109906712 -0.04871465894458937 0.035498966899202504 11.140068295484303 0.014176232929248921 0.026146984820599666 0.028129101001096002 0.0318985484213858 -0.041716645439214 0.04281315831964133 -0.03392735591672911 -0.04866073407600507 4.776214325166152 -0.007569695961072608 -0.03441601468233966 0.016583564032538575 0.04074466829934703 0.018485111505085475 0.025207888133969115 0.016169067204790354 -0.01721336272775099 -5.608264962377511 0.0279545860960628 0.048991311482848195 -6.722717502160856 -0.015886340437299463 -0.03193825381024265 -6.715604780316625 -0.03230606333419763 0.017985404795261967 0.02037690628796573 -0.011366868062712674 0.004077532245436021 8.088731362293215 3.4640567646588485 -19.213055625460395 -0.04234612034998781 10.351739144747214 0.03738557604200193 -5.589039522336657 -15.625590488628456 3.2324390705868544 0.0014949368083050916 -0.03611751912676773 0.025588599977251214 -0.049032348883446715 4.675433993834543 0.025581084637862544 12.44024560596504 -8.204948836210072 6.863636263299587 -0.04272405812682788 46.36917022754351 -0.008761172306315231 -4.329154058427176 -14.7755748668004 -3.844797947082504 -0.004548269062833517 -0.01626714892155508 0.01882329304176049 0.0419520779935027 -10.737070402363921 0.024473943714531352 
